<svg xmlns="http://www.w3.org/2000/svg" width="200.023" height="38.71" viewBox="0 0 200.023 38.71"><defs><style>.a{fill:#007ab7;}.b{fill:#123f85;}.c{fill:#28ac9d;}.d{fill:#009ccc;}.e{fill:#003d89;}.f{fill:#575655;}</style></defs><g transform="translate(-35.6 -390.593)"><g transform="translate(35.6 390.593)"><g transform="translate(0)"><path class="a" d="M101.8,425.236A24.544,24.544,0,0,1,89.759,431.6c-9.7,2.1-17.552-5.419-25.123-10.218-3.656-2.319-7.614-4.565-12.094-3.958-5.7.774-11.218,3.864-15.72,7.345-1.061.82.425,2.283,1.474,1.473,4.559-3.525,10.87-7.22,16.837-6.813,2.333.159,4.533,1.431,6.508,2.569,3.631,2.091,7.071,4.533,10.557,6.848,6.678,4.435,13.416,6.525,21.248,3.9a25.839,25.839,0,0,0,9.829-6.035,1.042,1.042,0,0,0-1.474-1.473" transform="translate(-36.131 -407.135)"/><path class="b" d="M35.889,432c6.624,8.521,17.922,13.334,27.925,7.826,6.3-3.465,12.006-9.475,19.154-11.229,2.943-.722,6.073.429,8.872,1.192,3.192.868,7,1.524,10.123,2.617,1.271.444,1.814-1.57.554-2.01-5.4-1.889-12.214-4.21-18.012-4.086-5.055.106-9.8,3.891-13.812,6.523-3.882,2.547-7.668,5.656-12.177,6.983-3.971,1.169-8.181.206-11.8-1.573a27.775,27.775,0,0,1-9.357-7.716c-.824-1.06-2.288.426-1.474,1.473" transform="translate(-35.631 -412.697)"/><path class="c" d="M36.25,425.753c9.54,7.285,22.55,1.791,31.435-3.472a32.115,32.115,0,0,1,9.04-3.9c4.587-1.074,9.47.043,13.889,1.326,3.758,1.09,8.367,2.952,10.994,6.056.87,1.026,2.336-.454,1.474-1.473-2.105-2.485-5.488-4.18-8.436-5.355-6.935-2.765-14.606-4.183-21.781-1.575-6.579,2.391-11.787,7.255-18.7,8.945-5.26,1.283-12.336,1.109-16.861-2.347-1.068-.816-2.1.995-1.051,1.8" transform="translate(-35.731 -406.305)"/><path class="d" d="M103.2,408.935c-5.827-8.757-16.355-19.75-27.894-18.194-7.863,1.062-13.456,6.926-19.3,11.74-4.242,3.5-13.224,9.574-18.889,5.728-1.115-.757-2.155,1.049-1.051,1.8,3.648,2.477,9.157.918,12.784-.578,7.374-3.044,12.464-9.555,19.074-13.783,13.013-8.323,26.42,3.739,33.473,14.34a1.043,1.043,0,0,0,1.737-1.152Z" transform="translate(-35.6 -390.593)"/></g></g><g transform="translate(112.931 391.986)"><path class="e" d="M238.525,406.954H243.6v13.86h8.864v4.446H238.525Z" transform="translate(-238.525 -402.112)"/><rect class="e" width="5.098" height="18.306" transform="translate(20.38 4.842)"/><path class="e" d="M320.323,406.954H326l4.158,11.585,4.158-11.585h5.571l-7.428,18.438h-4.706Z" transform="translate(-289.152 -402.112)"/><path class="c" d="M401.727,425.532l1.2-1.429a5.231,5.231,0,0,0,3.59,1.478c1.234,0,2.013-.568,2.013-1.429v-.033c0-.811-.454-1.25-2.566-1.738-2.419-.585-3.785-1.3-3.785-3.394v-.032c0-1.949,1.624-3.3,3.882-3.3a6.3,6.3,0,0,1,4.126,1.43l-1.072,1.509a5.166,5.166,0,0,0-3.085-1.168c-1.171,0-1.852.6-1.852,1.348v.032c0,.876.519,1.267,2.7,1.786,2.4.585,3.655,1.446,3.655,3.33v.033c0,2.126-1.673,3.394-4.061,3.394a7,7,0,0,1-4.741-1.819" transform="translate(-339.534 -407.499)"/><path class="c" d="M438.067,422.805l-1.964-4.548-1.949,4.548Zm-2.858-6.936h1.852l5,11.451h-2.111l-1.154-2.745h-5.377l-1.168,2.745h-2.047Z" transform="translate(-357.161 -407.63)"/><path class="c" d="M473.175,407.474l1.787.78-2.079,1.575h-1.527ZM467.3,417.3v-6.546h2v6.465c0,2.111,1.088,3.249,2.874,3.249,1.771,0,2.859-1.073,2.859-3.168v-6.546h2V417.2c0,3.395-1.916,5.1-4.888,5.1-2.956,0-4.84-1.706-4.84-5" transform="translate(-380.116 -402.434)"/><path class="c" d="M506.664,425.634a3.706,3.706,0,0,0,3.947-3.834v-.032a3.731,3.731,0,0,0-3.947-3.865h-2.242v7.731Zm-4.239-9.55h4.239c3.573,0,6.042,2.452,6.042,5.651v.033a5.692,5.692,0,0,1-6.042,5.685h-4.239Z" transform="translate(-401.858 -407.763)"/><path class="c" d="M538.151,416.084h8.429v1.787h-6.432v2.956h5.7v1.785h-5.7v3.055h6.513v1.785h-8.511Z" transform="translate(-423.969 -407.763)"/><rect class="f" width="0.256" height="28.359" transform="translate(56.336 0)"/><g transform="translate(17.012 32.384)"><path class="e" d="M283.718,479.778h1.653a2.414,2.414,0,0,1,.686.091,1.618,1.618,0,0,1,.534.266,1.218,1.218,0,0,1,.348.424,1.279,1.279,0,0,1,.124.575v.012a1.274,1.274,0,0,1-.144.615,1.31,1.31,0,0,1-.387.444,1.746,1.746,0,0,1-.566.266,2.553,2.553,0,0,1-.68.089h-1.23v1.654h-.338Zm1.588,2.485a2.033,2.033,0,0,0,.579-.077,1.324,1.324,0,0,0,.446-.219,1.019,1.019,0,0,0,.289-.348.974.974,0,0,0,.1-.452v-.013a1.033,1.033,0,0,0-.1-.468.932.932,0,0,0-.283-.335,1.32,1.32,0,0,0-.436-.2,2.093,2.093,0,0,0-.559-.07h-1.289v2.187Z" transform="translate(-283.508 -479.568)"/><path class="e" d="M283.925,484.085h-.757v-4.857h1.862a2.63,2.63,0,0,1,.746.1,1.84,1.84,0,0,1,.6.3,1.435,1.435,0,0,1,.408.5,1.626,1.626,0,0,1-.023,1.394,1.518,1.518,0,0,1-.448.514,1.948,1.948,0,0,1-.634.3,2.779,2.779,0,0,1-.736.1h-1.021Zm0-2.372h1.04a1.847,1.847,0,0,0,.52-.068,1.117,1.117,0,0,0,.377-.184.8.8,0,0,0,.231-.277.764.764,0,0,0,.082-.358.849.849,0,0,0-.079-.388.714.714,0,0,0-.22-.26,1.115,1.115,0,0,0-.367-.17,1.879,1.879,0,0,0-.5-.063h-1.079Z" transform="translate(-283.168 -479.228)"/></g><g transform="translate(22.251 32.384)"><path class="e" d="M297.465,479.778h1.913a2.222,2.222,0,0,1,.748.117,1.474,1.474,0,0,1,.534.32,1.142,1.142,0,0,1,.345.824v.013a1.174,1.174,0,0,1-.1.5,1.132,1.132,0,0,1-.28.377,1.441,1.441,0,0,1-.423.257,2.158,2.158,0,0,1-.53.136l1.5,1.9h-.429l-1.451-1.839H297.8v1.839h-.338Zm1.874,2.3a1.943,1.943,0,0,0,.53-.069,1.323,1.323,0,0,0,.42-.2.96.96,0,0,0,.277-.319.9.9,0,0,0,.1-.429v-.013a.846.846,0,0,0-.341-.712,1.564,1.564,0,0,0-.966-.261H297.8v2Z" transform="translate(-297.255 -479.568)"/><path class="e" d="M301.268,484.085H300.3l-1.451-1.839h-1.18v1.839h-.757v-4.857h2.123a2.442,2.442,0,0,1,.819.129,1.687,1.687,0,0,1,.609.367,1.374,1.374,0,0,1,.3.438,1.359,1.359,0,0,1,.108.536,1.41,1.41,0,0,1-.12.6,1.338,1.338,0,0,1-.331.446,1.646,1.646,0,0,1-.484.294,2.188,2.188,0,0,1-.232.079Zm-3.6-2.556H299a1.745,1.745,0,0,0,.473-.062,1.115,1.115,0,0,0,.352-.167.743.743,0,0,0,.216-.249.686.686,0,0,0,.076-.33.641.641,0,0,0-.259-.558,1.374,1.374,0,0,0-.84-.218h-1.346Z" transform="translate(-296.915 -479.228)"/></g><g transform="translate(27.335 32.352)"><path class="e" d="M313.248,479.694h.325l2.121,4.47h-.37l-.58-1.243h-2.688l-.579,1.243h-.352Zm1.354,2.929-1.2-2.568-1.2,2.568Z" transform="translate(-310.794 -479.484)"/><path class="e" d="M315.488,484.033h-.836l-.579-1.243h-2.421l-.579,1.243h-.817l2.321-4.889h.59Zm-3.5-1.96h1.743l-.869-1.864Z" transform="translate(-310.256 -479.144)"/></g><g transform="translate(35.607 32.384)"><path class="e" d="M332.813,479.778h.378l1.783,4.083,1.79-4.083h.358l-2,4.469h-.3Z" transform="translate(-332.489 -479.569)"/><path class="e" d="M334.727,484.116h-.571l-2.193-4.888h.838l1.647,3.77,1.652-3.77h.819Z" transform="translate(-331.963 -479.228)"/></g><g transform="translate(41.683 32.309)"><path class="e" d="M350.741,484.167a2.285,2.285,0,0,1-.94-.186,2.252,2.252,0,0,1-.719-.5,2.214,2.214,0,0,1-.462-.726,2.334,2.334,0,0,1-.163-.868v-.013a2.338,2.338,0,0,1,.631-1.6,2.2,2.2,0,0,1,.723-.5,2.457,2.457,0,0,1,1.881,0,2.2,2.2,0,0,1,1.184,1.227,2.339,2.339,0,0,1,.163.869.007.007,0,0,1,0,.012,2.322,2.322,0,0,1-.166.872,2.288,2.288,0,0,1-.465.732,2.214,2.214,0,0,1-.726.5A2.318,2.318,0,0,1,350.741,484.167Zm.013-.3a1.915,1.915,0,0,0,.777-.155,1.869,1.869,0,0,0,.612-.426,1.937,1.937,0,0,0,.4-.63,2.086,2.086,0,0,0,.143-.774v-.013a2.067,2.067,0,0,0-.146-.777,1.983,1.983,0,0,0-.4-.634,1.981,1.981,0,0,0-2.174-.431,1.883,1.883,0,0,0-.612.425,1.934,1.934,0,0,0-.4.631,2.079,2.079,0,0,0-.143.774v.012a2.07,2.07,0,0,0,.146.777,1.964,1.964,0,0,0,.4.633,1.89,1.89,0,0,0,.615.428A1.913,1.913,0,0,0,350.754,483.87Z" transform="translate(-348.247 -479.369)"/><path class="e" d="M350.4,484.038a2.508,2.508,0,0,1-1.026-.2,2.476,2.476,0,0,1-.786-.548,2.432,2.432,0,0,1-.505-.794,2.574,2.574,0,0,1,.511-2.706,2.412,2.412,0,0,1,.79-.551,2.677,2.677,0,0,1,2.05,0,2.412,2.412,0,0,1,1.295,1.341,2.549,2.549,0,0,1,.176.856l.005.005-.006.2a2.544,2.544,0,0,1-.687,1.649,2.43,2.43,0,0,1-.793.553A2.542,2.542,0,0,1,350.4,484.038Zm0-4.292a1.723,1.723,0,0,0-.694.138,1.681,1.681,0,0,0-.545.378,1.735,1.735,0,0,0-.356.563,1.976,1.976,0,0,0,0,1.408,1.764,1.764,0,0,0,.36.566,1.687,1.687,0,0,0,.548.381,1.815,1.815,0,0,0,1.39,0,1.668,1.668,0,0,0,.544-.378,1.726,1.726,0,0,0,.357-.563,1.973,1.973,0,0,0,0-1.407,1.788,1.788,0,0,0-.361-.568,1.7,1.7,0,0,0-1.244-.521Z" transform="translate(-347.907 -479.03)"/></g><g transform="translate(48.107 32.308)"><path class="e" d="M367.578,484.167a2.288,2.288,0,0,1-.9-.178,2.173,2.173,0,0,1-1.191-1.211,2.353,2.353,0,0,1-.169-.894v-.013a2.327,2.327,0,0,1,.647-1.62,2.212,2.212,0,0,1,.719-.494,2.26,2.26,0,0,1,.911-.181,2.754,2.754,0,0,1,.553.051,2.164,2.164,0,0,1,.459.145,2.431,2.431,0,0,1,.4.226,3.806,3.806,0,0,1,.361.288l-.241.241a3.735,3.735,0,0,0-.312-.26,1.92,1.92,0,0,0-.348-.205,2.05,2.05,0,0,0-.876-.187,1.9,1.9,0,0,0-.761.151,1.849,1.849,0,0,0-.609.422,1.974,1.974,0,0,0-.4.631,2.058,2.058,0,0,0-.146.78v.012a2.039,2.039,0,0,0,.15.783,2.012,2.012,0,0,0,.407.633,1.879,1.879,0,0,0,.609.426,1.86,1.86,0,0,0,.761.155,1.943,1.943,0,0,0,.859-.178,2.763,2.763,0,0,0,.71-.514l.228.216a4.235,4.235,0,0,1-.374.313,2.319,2.319,0,0,1-.41.245,2.382,2.382,0,0,1-.472.158A2.493,2.493,0,0,1,367.578,484.167Z" transform="translate(-365.103 -479.368)"/><path class="e" d="M367.237,484.037a2.5,2.5,0,0,1-.987-.195,2.38,2.38,0,0,1-1.3-1.325,2.653,2.653,0,0,1,0-1.953,2.531,2.531,0,0,1,.519-.8,2.425,2.425,0,0,1,.787-.541,2.474,2.474,0,0,1,.995-.2,2.969,2.969,0,0,1,.6.056,2.339,2.339,0,0,1,.5.159,2.617,2.617,0,0,1,.431.245,3.964,3.964,0,0,1,.381.3l.164.147-.54.541-.148-.138a3.454,3.454,0,0,0-.3-.246,1.754,1.754,0,0,0-.31-.183,1.845,1.845,0,0,0-.788-.168,1.7,1.7,0,0,0-.678.135,1.653,1.653,0,0,0-.54.375,1.771,1.771,0,0,0-.361.564,1.962,1.962,0,0,0,0,1.417,1.809,1.809,0,0,0,.364.569,1.66,1.66,0,0,0,1.219.516,1.741,1.741,0,0,0,.767-.157,2.559,2.559,0,0,0,.655-.475l.144-.14.535.507-.162.152a4.512,4.512,0,0,1-.393.329,2.536,2.536,0,0,1-.446.266,2.584,2.584,0,0,1-.514.173A2.716,2.716,0,0,1,367.237,484.037Z" transform="translate(-364.763 -479.028)"/></g><g transform="translate(54.003 30.894)"><path class="e" d="M380.785,477.359h3.241v.3h-2.9v1.756h2.61v.3h-2.61V481.5h2.935v.3h-3.273Zm1.464-1.49h.26l.651.774h-.306l-.482-.431-.482.431H381.6Z" transform="translate(-380.575 -475.659)"/><path class="e" d="M383.928,481.666h-3.693v-4.857h3.66v.717h-2.9v1.337h2.61v.717h-2.61v1.369h2.935Zm-.657-5.154h-.836l-.4-.359-.4.359h-.823l1-1.193h.455Z" transform="translate(-380.235 -475.319)"/></g><g transform="translate(61.011 32.384)"><path class="e" d="M399.473,479.778h.378l1.783,4.083,1.79-4.083h.358l-2,4.469h-.3Z" transform="translate(-399.149 -479.569)"/><path class="e" d="M401.387,484.116h-.571l-2.193-4.888h.838l1.646,3.77,1.653-3.77h.819Z" transform="translate(-398.624 -479.228)"/></g><g transform="translate(67.333 32.384)"><path class="e" d="M415.765,479.778h.338v4.438h-.338Z" transform="translate(-415.556 -479.569)"/><rect class="e" width="0.757" height="4.857"/></g><g transform="translate(69.458 32.384)"><path class="e" d="M421.639,479.778h.378l1.783,4.083,1.79-4.083h.358l-2,4.469h-.3Z" transform="translate(-421.315 -479.569)"/><path class="e" d="M423.553,484.116h-.571l-2.193-4.888h.838l1.646,3.77,1.652-3.77h.819Z" transform="translate(-420.79 -479.228)"/></g><g transform="translate(75.735 32.384)"><path class="e" d="M437.812,479.778h3.241v.3h-2.9v1.756h2.61v.3h-2.61v1.788h2.935v.3h-3.273Z" transform="translate(-437.603 -479.569)"/><path class="e" d="M440.955,484.085h-3.693v-4.857h3.66v.717h-2.9v1.337h2.61V482h-2.61v1.369h2.935Z" transform="translate(-437.262 -479.228)"/></g><g transform="translate(80.987 32.384)"><path class="e" d="M451.593,479.778h1.913a2.223,2.223,0,0,1,.748.117,1.474,1.474,0,0,1,.534.32,1.15,1.15,0,0,1,.253.371,1.136,1.136,0,0,1,.091.453v.013a1.186,1.186,0,0,1-.1.5,1.136,1.136,0,0,1-.279.377,1.471,1.471,0,0,1-.423.257,2.17,2.17,0,0,1-.531.136l1.5,1.9h-.43l-1.451-1.839h-1.491v1.839h-.338Zm1.874,2.3a1.939,1.939,0,0,0,.53-.069,1.32,1.32,0,0,0,.42-.2.955.955,0,0,0,.277-.319.887.887,0,0,0,.1-.429v-.013a.848.848,0,0,0-.341-.712,1.567,1.567,0,0,0-.967-.261h-1.556v2Z" transform="translate(-451.384 -479.568)"/><path class="e" d="M455.4,484.085h-.965l-1.451-1.839H451.8v1.839h-.757v-4.857h2.123a2.442,2.442,0,0,1,.819.129,1.687,1.687,0,0,1,.609.367,1.358,1.358,0,0,1,.3.439,1.343,1.343,0,0,1,.108.535,1.414,1.414,0,0,1-.12.6,1.334,1.334,0,0,1-.331.447,1.664,1.664,0,0,1-.484.294,2.091,2.091,0,0,1-.233.079Zm-3.6-2.556h1.327a1.748,1.748,0,0,0,.474-.062,1.1,1.1,0,0,0,.352-.167.737.737,0,0,0,.216-.248.673.673,0,0,0,.076-.33.651.651,0,0,0-.259-.559,1.376,1.376,0,0,0-.84-.218H451.8Z" transform="translate(-451.044 -479.228)"/></g><g transform="translate(88.805 32.384)"><path class="e" d="M472.11,479.778h1.877a2.124,2.124,0,0,1,.692.1,1.294,1.294,0,0,1,.49.289.941.941,0,0,1,.292.7v.013a1.077,1.077,0,0,1-.068.4,1.04,1.04,0,0,1-.178.3,1.089,1.089,0,0,1-.251.213,1.941,1.941,0,0,1-.276.143,2.239,2.239,0,0,1,.39.137,1.174,1.174,0,0,1,.328.215,1.011,1.011,0,0,1,.225.3.907.907,0,0,1,.084.4v.012a1.082,1.082,0,0,1-.117.5,1.1,1.1,0,0,1-.332.38,1.661,1.661,0,0,1-.513.24,2.44,2.44,0,0,1-.67.085H472.11Zm1.841,2.054a1.711,1.711,0,0,0,.469-.061,1.129,1.129,0,0,0,.371-.176.8.8,0,0,0,.243-.287.854.854,0,0,0,.088-.4V480.9a.718.718,0,0,0-.293-.6,1.359,1.359,0,0,0-.846-.227h-1.536v1.756Zm.15,2.086a1.579,1.579,0,0,0,.931-.245.773.773,0,0,0,.345-.665V483a.716.716,0,0,0-.355-.639,1.929,1.929,0,0,0-1.031-.226h-1.542v1.788Z" transform="translate(-471.9 -479.568)"/><path class="e" d="M473.744,484.085H471.56v-4.857h2.086a2.335,2.335,0,0,1,.761.116,1.506,1.506,0,0,1,.568.337,1.147,1.147,0,0,1,.356.849,1.314,1.314,0,0,1-.083.49,1.269,1.269,0,0,1-.214.358,1.339,1.339,0,0,1-.186.175,1.391,1.391,0,0,1,.361.242,1.227,1.227,0,0,1,.27.365,1.117,1.117,0,0,1,.106.493,1.266,1.266,0,0,1-.535,1.065,1.88,1.88,0,0,1-.578.272A2.675,2.675,0,0,1,473.744,484.085Zm-1.426-.717h1.443a1.384,1.384,0,0,0,.81-.207.562.562,0,0,0,.256-.494.515.515,0,0,0-.258-.475,1.739,1.739,0,0,0-.919-.194h-1.333Zm0-2.086h1.293a1.477,1.477,0,0,0,.412-.053.921.921,0,0,0,.3-.143.589.589,0,0,0,.182-.214.651.651,0,0,0,.065-.3.514.514,0,0,0-.211-.443,1.168,1.168,0,0,0-.718-.184h-1.327Z" transform="translate(-471.56 -479.228)"/></g><g transform="translate(94.395 32.384)"><path class="e" d="M486.778,479.778h3.241v.3h-2.9v1.756h2.61v.3h-2.61v1.788h2.935v.3h-3.274Z" transform="translate(-486.568 -479.569)"/><path class="e" d="M489.921,484.085h-3.693v-4.857h3.66v.717h-2.9v1.337h2.61V482h-2.61v1.369h2.935Z" transform="translate(-486.228 -479.228)"/></g><g transform="translate(99.647 32.384)"><path class="e" d="M500.56,479.778h.319l1.83,2.625,1.828-2.625h.319v4.438h-.339v-3.855l-1.8,2.555h-.026l-1.8-2.555v3.855h-.325Z" transform="translate(-500.351 -479.569)"/><path class="e" d="M504.725,484.085h-.758v-3.4l-1.485,2.1h-.217l-.089-.089-1.422-2.015v3.4h-.744v-4.857h.637l1.72,2.468,1.719-2.468h.638Z" transform="translate(-500.011 -479.228)"/></g></g></g></svg>